HIERARCHY
ROOT root
{
	OFFSET	0	13.1	24.9
	CHANNELS 6  Xposition Yposition Zposition Xrotation Yrotation Zrotation
	JOINT spine_1
	{
		OFFSET	0	9.99999	0
		CHANNELS 3  Xrotation Yrotation Zrotation
		JOINT spine_2
		{
			OFFSET	0	112	-10
			CHANNELS 3  Xrotation Yrotation Zrotation
			JOINT spine_3
			{
				OFFSET	0	206.5	19.3
				CHANNELS 3  Xrotation Yrotation Zrotation
				JOINT spine_4
				{
					OFFSET	0	110.4	14.6
					CHANNELS 3  Xrotation Yrotation Zrotation
					JOINT neck_1
					{
						OFFSET	0	71.8	-50.3
						CHANNELS 3  Xrotation Yrotation Zrotation
						JOINT neck_2
						{
							OFFSET	0	86.2	-25.8
							CHANNELS 3  Xrotation Yrotation Zrotation
							JOINT head_ee
							{
								OFFSET	0	179.8	-8.7
								CHANNELS 3  Xrotation Yrotation Zrotation
								End Site
								{
									OFFSET	1	0	0
								}
							}
						}
					}
					JOINT left_clavicle
					{
						OFFSET	-43.2	22.4	-70.8
						CHANNELS 3  Xrotation Yrotation Zrotation
						JOINT left_shoulder
						{
							OFFSET	-93.9	-5.79999	48.7
							CHANNELS 3  Xrotation Yrotation Zrotation
							JOINT left_elbow
							{
								OFFSET	-291.4	-30.8	15.2
								CHANNELS 3  Xrotation Yrotation Zrotation
								JOINT left_lowarm_twist
								{
									OFFSET	-110.7	-3.89999	13.6
									CHANNELS 3  Xrotation Yrotation Zrotation
									JOINT left_hand
									{
										OFFSET	-110.7	-3.89999	13.6
										CHANNELS 3  Xrotation Yrotation Zrotation
										JOINT left_ee
										{
											OFFSET	-80.8	-5.10001	12.1
											CHANNELS 3  Xrotation Yrotation Zrotation
											End Site
											{
												OFFSET	1	0	0
											}
										}
									}
								}
							}
						}
					}
					JOINT right_clavicle
					{
						OFFSET	43.2	22.4	-70.8
						CHANNELS 3  Xrotation Yrotation Zrotation
						JOINT right_shoulder
						{
							OFFSET	93.9	-5.79999	48.7
							CHANNELS 3  Xrotation Yrotation Zrotation
							JOINT right_elbow
							{
								OFFSET	291.4	-30.8	15.2
								CHANNELS 3  Xrotation Yrotation Zrotation
								JOINT right_lowarm_twist
								{
									OFFSET	110.7	-3.89999	13.6
									CHANNELS 3  Xrotation Yrotation Zrotation
									JOINT right_hand
									{
										OFFSET	110.7	-3.89999	13.6
										CHANNELS 3  Xrotation Yrotation Zrotation
										JOINT right_ee
										{
											OFFSET	80.8	-5.10001	12.1
											CHANNELS 3  Xrotation Yrotation Zrotation
											End Site
											{
												OFFSET	1	0	0
											}
										}
									}
								}
							}
						}
					}
				}
			}
		}
	}
	JOINT left_hip
	{
		OFFSET	-82.8	-127.5	0.300001
		CHANNELS 3  Xrotation Yrotation Zrotation
		JOINT left_knee
		{
			OFFSET	-28.2	-396.7	2.2
			CHANNELS 3  Xrotation Yrotation Zrotation
			JOINT left_ankle
			{
				OFFSET	-11.7	-411.3	35.4
				CHANNELS 3  Xrotation Yrotation Zrotation
				JOINT left_toes
				{
					OFFSET	0	-60	-88.6
					CHANNELS 3  Xrotation Yrotation Zrotation
					JOINT left_foot_ee
					{
						OFFSET	-22.5	-16.5	-42.2
						CHANNELS 3  Xrotation Yrotation Zrotation
						End Site
						{
							OFFSET	1	0	0
						}
					}
				}
			}
		}
	}
	JOINT right_hip
	{
		OFFSET	82.8	-127.5	0.300001
		CHANNELS 3  Xrotation Yrotation Zrotation
		JOINT right_knee
		{
			OFFSET	28.2	-396.7	2.2
			CHANNELS 3  Xrotation Yrotation Zrotation
			JOINT right_ankle
			{
				OFFSET	11.7	-411.3	35.4
				CHANNELS 3  Xrotation Yrotation Zrotation
				JOINT right_toes
				{
					OFFSET	0	-60	-88.6
					CHANNELS 3  Xrotation Yrotation Zrotation
					JOINT right_foot_ee
					{
						OFFSET	22.5	-16.5	-42.2
						CHANNELS 3  Xrotation Yrotation Zrotation
						End Site
						{
							OFFSET	1	0	0
						}
					}
				}
			}
		}
	}
}
MOTION
Frames: 7
Frame Time: 0.02
3177.02 653.055 -1669.29 -1.34285370357 15.6568324691 6.07502482308 -2.27503 0.335503 -0.0131112 -2.2751 0.335657 0.0082645 -2.27511 0.323044 0.0915227 -2.27496 0.333444 0.0393547 5.56343 13.6849 4.27576 6.00365 19.6513 5.44019 -0.0 0.0 -0.0 8.28241 9.10652 15.754 -27.293 -18.0424 52.5017 0.324787 -9.14018 0.0259611 8.06489 0.213558 -1.00722 0.801562 -2.36133 4.38756 -0.0 0.0 -0.0 12.6013 16.2174 -25.5338 -31.6185 49.6737 -28.7088 1.45763 35.8297 -0.471243 1.68552 -0.0563305 0.207899 -3.35941 5.01272 25.6097 0.0 0.0 0.0 14.5577 -34.1557 -18.8367 -0.0343581 0.00141329 0.00508316 6.82084 26.0441 -1.02984 -9.04655 0.0 0.0 -0.0 0.0 -0.0 -1.76772 -2.48084 0.0791734 -28.7983 -0.0882153 -4.3723 29.9629 8.12741 4.00698 8.34645 -0.0 -0.0 0.0 0.0 0.0 
3159.72775663 650.578 -1685.41163823 -1.3800087639 15.5768269571 6.11905945988 -2.19363 0.300433 -0.0503909 -2.19368 0.30303 -0.0311713 -2.19391 0.30132 0.0447826 -2.19378 0.304611 -0.00336769 6.31176 12.7999 4.15839 6.69572 18.0614 5.23746 -0.0 0.0 -0.0 8.38671 9.05482 15.9494 -26.0004 -17.22 52.9802 0.313507 -8.82783 0.0241997 8.44433 0.220093 -1.05525 0.756222 0.797509 5.38323 -0.0 0.0 -0.0 11.8258 15.4414 -23.784 -30.2079 49.5421 -31.6957 1.31115 33.0024 -0.388426 2.45108 -0.0798893 0.302847 -3.40915 4.88476 25.9187 0.0 0.0 0.0 15.7013 -36.581 -17.8837 -4.00321 0.144 0.59737 2.02226 25.3851 -0.308003 -7.86362 0.0 0.0 -0.0 0.0 -0.0 -2.31796 -0.470749 -0.0216275 -28.9934 -0.0813041 -4.40145 28.3834 6.16218 3.80203 9.25516 -0.0 -0.0 0.0 0.0 0.0 
3159.68486855 650.578 -1685.36551299 -1.38103921297 15.7294237379 6.12287858301 -2.19363 0.300433 -0.0503909 -2.19368 0.30303 -0.0311713 -2.19391 0.30132 0.0447826 -2.19378 0.304611 -0.00336769 6.31176 12.7999 4.15839 6.69572 18.0614 5.23746 -0.0 0.0 -0.0 8.38671 9.05482 15.9494 -26.0004 -17.22 52.9802 0.313507 -8.82783 0.0241997 8.44433 0.220093 -1.05525 0.756222 0.797509 5.38323 -0.0 0.0 -0.0 11.8258 15.4414 -23.784 -30.2079 49.5421 -31.6957 1.31115 33.0024 -0.388426 2.45108 -0.0798893 0.302847 -3.40915 4.88476 25.9187 0.0 0.0 0.0 15.7013 -36.581 -17.8837 -4.00321 0.144 0.59737 2.02226 25.3851 -0.308003 -7.86362 0.0 0.0 -0.0 0.0 -0.0 -2.31796 -0.470749 -0.0216275 -28.9934 -0.0813041 -4.40145 28.3834 6.16218 3.80203 9.25516 -0.0 -0.0 0.0 0.0 0.0 
3159.62384294 650.578 -1685.29945407 -1.38253025665 15.9473132669 6.12834178166 -2.19363 0.300433 -0.0503909 -2.19368 0.30303 -0.0311713 -2.19391 0.30132 0.0447826 -2.19378 0.304611 -0.00336769 6.31176 12.7999 4.15839 6.69572 18.0614 5.23746 -0.0 0.0 -0.0 8.38671 9.05482 15.9494 -26.0004 -17.22 52.9802 0.313507 -8.82783 0.0241997 8.44433 0.220093 -1.05525 0.756222 0.797509 5.38323 -0.0 0.0 -0.0 11.8258 15.4414 -23.784 -30.2079 49.5421 -31.6957 1.31115 33.0024 -0.388426 2.45108 -0.0798893 0.302847 -3.40915 4.88476 25.9187 0.0 0.0 0.0 15.7013 -36.581 -17.8837 -4.00321 0.144 0.59737 2.02226 25.3851 -0.308003 -7.86362 0.0 0.0 -0.0 0.0 -0.0 -2.31796 -0.470749 -0.0216275 -28.9934 -0.0813041 -4.40145 28.3834 6.16218 3.80203 9.25516 -0.0 -0.0 0.0 0.0 0.0 
3086.6605009 655.917 -1758.44235231 2.96593295186 15.9430822063 6.13648772377 -2.96114 -0.162912 -0.838846 -2.96076 -0.109206 -0.847512 -2.9586 0.115221 -0.846715 -2.9596 -0.0199427 -0.854285 6.04245 13.027 4.41911 6.43064 18.2802 5.56211 -0.0 0.0 -0.0 8.6595 11.1827 16.2823 -23.6877 -20.9839 54.9339 0.418748 -11.7192 0.0429751 7.5108 0.203443 -0.937164 0.723515 -0.250495 4.73477 -0.0 0.0 -0.0 11.7229 14.8255 -23.5719 -32.0959 45.7829 -36.4221 0.547583 15.1768 -0.0729511 -0.911742 0.0330156 -0.111752 -3.53999 6.72422 27.8128 0.0 0.0 0.0 18.4547 -38.5692 -9.9389 -25.3589 0.193674 3.85508 7.67452 23.6609 -1.1415 -2.67935 0.0 0.0 -0.0 0.0 -0.0 -1.08951 11.5466 -1.83982 -42.0841 0.604649 -6.28754 27.1092 -6.79467 3.57135 10.5386 -0.0 -0.0 0.0 0.0 0.0 
3064.96104257 661.035 -1779.18874503 4.24677024622 16.102250512 4.79698233598 -3.03263 -0.211496 -0.684382 -3.03238 -0.167519 -0.696452 -3.02994 0.020473 -0.716022 -3.03064 -0.0928634 -0.71027 6.14881 12.8275 4.5667 6.51749 17.7822 5.72447 -0.0 0.0 -0.0 8.48228 11.6344 15.9261 -22.9148 -21.4814 55.1934 0.44919 -12.545 0.0493732 6.76448 0.18875 -0.842961 0.669752 -0.648234 4.21036 -0.0 0.0 -0.0 11.0538 14.8908 -22.0547 -31.2108 45.6151 -39.5538 0.467453 13.038 -0.0534167 -1.1835 0.0432005 -0.14496 -3.5624 7.0476 28.1415 0.0 0.0 0.0 21.588 -38.5851 -5.11323 -33.9959 -0.12961 5.13989 13.1138 24.1368 -1.92167 -0.255967 0.0 0.0 -0.0 0.0 -0.0 0.261769 15.9708 -3.10936 -46.064 0.896907 -6.82541 24.9364 -16.0935 3.36868 11.1772 -0.0 -0.0 0.0 0.0 0.0 
3064.58113937 661.035 -1778.80003022 4.25104142487 16.3001186657 4.78167407619 -3.03263 -0.211496 -0.684382 -3.03238 -0.167519 -0.696452 -3.02994 0.020473 -0.716022 -3.03064 -0.0928634 -0.71027 6.14881 12.8275 4.5667 6.51749 17.7822 5.72447 -0.0 0.0 -0.0 8.48228 11.6344 15.9261 -22.9148 -21.4814 55.1934 0.44919 -12.545 0.0493732 6.76448 0.18875 -0.842961 0.669752 -0.648234 4.21036 -0.0 0.0 -0.0 11.0538 14.8908 -22.0547 -31.2108 45.6151 -39.5538 0.467453 13.038 -0.0534167 -1.1835 0.0432005 -0.14496 -3.5624 7.0476 28.1415 0.0 0.0 0.0 21.588 -38.5851 -5.11323 -33.9959 -0.12961 5.13989 13.1138 24.1368 -1.92167 -0.255967 0.0 0.0 -0.0 0.0 -0.0 0.261769 15.9708 -3.10936 -46.064 0.896907 -6.82541 24.9364 -16.0935 3.36868 11.1772 -0.0 -0.0 0.0 0.0 0.0 
